<?xml version="1.0" encoding="UTF-8" standalone="no"?><svg xmlns:svg="http://www.w3.org/2000/svg" xmlns="http://www.w3.org/2000/svg" version="1.1" style="overflow:visible" viewBox="-250 -250 500 500" height="500px" width="500px"><rect fill-opacity="0" fill="rgb(0,0,0)" height="500" width="500" y="-250" x="-250" /><svg version="1.1" y="-250" x="-250" viewBox="-250 -250 500 500" height="500px" width="500px" style="overflow:visible"><g transform="rotate(0,0,0)" stroke-linejoin="round" fill="#fff"><path stroke-linecap="butt" stroke-linejoin="round" stroke-width="8" stroke-opacity="1" stroke="rgb(0,0,0)" fill="rgb(0,0,0)" d="m-137.141001-3.283l-0.00015 151.048c0 5.11504 4.12009 9.23544 9.23848 9.23544h266.351c5.11842 0 9.23849-4.1204 9.23849-9.23544l0.00016-151.048l-139.122-20.0534z" /><path stroke-linecap="butt" stroke-linejoin="round" stroke="none" fill="rgb(255,255,255)" d="m82.817999-145.053l-0.38248 19.2043l21.4718 17.3017l34.0744-9.12421l-10.5452-39.3294zm-78.285 20.963l-0.91252 19.4222l22.0017 17.0838l37.5441-10.0533l4.05213-22.2724l-25.1443-14.2328zm-78.285 20.963l0.73831 19.8197l20.3539 16.6855l37.5412-10.0525l-1.07413-21.3886l-20.0181-15.1166zm-73.934 19.797l10.5452 39.3294l43.7378-11.7118l0.8897-21.4988l-21.9819-15.0064z" /><path stroke-linecap="butt" stroke-linejoin="round" stroke="none" fill="rgb(0,0,0)" d="m42.074-134.142l21.0922 36.5052l40.7408-10.9093l-21.0893-36.506zm-78.285 20.962l21.0922 36.5052l40.7407-10.9093l-21.0892-36.506zm-78.285 20.963l21.0922 36.5052l40.7437-10.9101l-21.0922-36.5052z" /><path stroke-linecap="butt" stroke-linejoin="round" stroke="none" fill="rgb(255,255,255)" d="m-90.949001-44l5.74586 20.1744l-16.6619 20.5424h-35.2764v-40.7168zm81.046 0l6.2933 21.0717l-17.2093 19.6451h-38.8685l-9.64831-20.5579l20.5673-20.1589zm81.047 0l4.2509 19.9604l-15.1699 20.7564h-38.8654l-4.22116-21.7192l15.1402-18.9976zm76.542 0v40.7168h-45.2807l-6.69296-19.8282l17.612-20.8886z" /><path stroke-linecap="butt" stroke-linejoin="round" stroke="none" fill="rgb(0,0,0)" d="m-48.768-44l-10.919 40.7168h-42.1779l10.916-40.7168zm81.046 0l-10.919 40.7168h-42.1779l10.916-40.7168zm81.047 0l-10.919 40.7168h-42.181l10.919-40.7168z" /><path stroke-linecap="butt" stroke-linejoin="round" stroke-width="8" stroke-opacity="1" stroke="rgb(0,0,0)" fill="none" d="m-147.687-83.329001l275.123-73.6707l10.5452 39.3294l-275.123 73.6707z" /><path stroke-linecap="butt" stroke-linejoin="round" stroke-width="8" stroke-opacity="1" stroke="rgb(0,0,0)" fill="none" d="m147.687-44h-284.828v40.7168h284.828z" /></g></svg></svg>